<svg width="366" height="90" viewBox="0 0 366 90" version="1.1" xmlns="http://www.w3.org/2000/svg" xmlns:xlink="http://www.w3.org/1999/xlink">
<title>Group</title>
<desc>Created using Figma</desc>
<g id="Canvas" transform="matrix(3 0 0 3 -54642 -306)">
<g id="Group">
<g id="ICO">
<use xlink:href="#path0_fill" transform="translate(18213 101)" fill="#383838" fill-opacity="0.5"/>
</g>
<g id="Group">
<g id="WaterDrop">
<g id="Vector">
<use xlink:href="#path1_fill" transform="translate(18285 102)" fill="#383838" fill-opacity="0.5"/>
</g>
</g>
<g id="DR PS">
<use xlink:href="#path2_fill" transform="translate(18252 101)" fill="#383838" fill-opacity="0.5"/>
</g>
</g>
</g>
</g>
<defs>
<path id="path0_fill" d="M 5.516 8.584L 5.516 25.412C 5.516 25.804 5.32 26 4.928 26L 2.548 26C 2.156 26 1.96 25.804 1.96 25.412L 1.96 8.584C 1.96 8.192 2.156 7.996 2.548 7.996L 4.928 7.996C 5.32 7.996 5.516 8.192 5.516 8.584ZM 16.6768 26L 13.6248 26C 12.1502 26 11.0115 25.608 10.2088 24.824C 9.40618 24.04 9.00484 22.9107 9.00484 21.436L 9.00484 12.56C 9.00484 11.0853 9.40618 9.956 10.2088 9.172C 11.0115 8.388 12.1502 7.996 13.6248 7.996L 16.6768 7.996C 18.1328 7.996 19.2622 8.39733 20.0648 9.2C 20.8862 9.984 21.2968 11.104 21.2968 12.56L 21.2968 13.876C 21.2968 14.2867 21.0915 14.492 20.6808 14.492L 18.3288 14.492C 17.9368 14.492 17.7408 14.2867 17.7408 13.876L 17.7408 12.728C 17.7408 12.1307 17.6102 11.7107 17.3488 11.468C 17.1062 11.2067 16.6862 11.076 16.0888 11.076L 14.1848 11.076C 13.6062 11.076 13.1862 11.2067 12.9248 11.468C 12.6822 11.7107 12.5608 12.1307 12.5608 12.728L 12.5608 21.268C 12.5608 21.8653 12.6822 22.2947 12.9248 22.556C 13.1862 22.7987 13.6062 22.92 14.1848 22.92L 16.0888 22.92C 16.6862 22.92 17.1062 22.7987 17.3488 22.556C 17.6102 22.2947 17.7408 21.8653 17.7408 21.268L 17.7408 20.12C 17.7408 19.7093 17.9368 19.504 18.3288 19.504L 20.6808 19.504C 21.0915 19.504 21.2968 19.7093 21.2968 20.12L 21.2968 21.436C 21.2968 22.892 20.8862 24.0213 20.0648 24.824C 19.2622 25.608 18.1328 26 16.6768 26ZM 29.2512 22.92L 31.2392 22.92C 31.8366 22.92 32.2566 22.7987 32.4993 22.556C 32.7606 22.2947 32.8912 21.8653 32.8912 21.268L 32.8912 12.728C 32.8912 12.1307 32.7606 11.7107 32.4993 11.468C 32.2566 11.2067 31.8366 11.076 31.2392 11.076L 29.2512 11.076C 28.6539 11.076 28.2339 11.2067 27.9913 11.468C 27.7486 11.7107 27.6273 12.1307 27.6273 12.728L 27.6273 21.268C 27.6273 21.8653 27.7486 22.2947 27.9913 22.556C 28.2339 22.7987 28.6539 22.92 29.2512 22.92ZM 31.8272 26L 28.6913 26C 27.2166 26 26.0779 25.608 25.2752 24.824C 24.4726 24.04 24.0712 22.9107 24.0712 21.436L 24.0712 12.56C 24.0712 11.0853 24.4726 9.956 25.2752 9.172C 26.0779 8.388 27.2166 7.996 28.6913 7.996L 31.8272 7.996C 33.3019 7.996 34.4406 8.388 35.2433 9.172C 36.0459 9.956 36.4472 11.0853 36.4472 12.56L 36.4472 21.436C 36.4472 22.9107 36.0459 24.04 35.2433 24.824C 34.4406 25.608 33.3019 26 31.8272 26Z"/>
<path id="path1_fill" d="M 15.3827 28.5354C 13.442 29.7118 11.1657 30.2009 8.91647 29.9248C 6.66728 29.6487 4.57472 28.6233 2.97234 27.0119C 1.36995 25.4006 0.349979 23.2961 0.0750007 21.0339C -0.199978 18.7717 0.285867 16.482 1.45509 14.5299L 6.14668 6.69012L 7.65737 4.16555C 8.06085 4.86039 8.57223 5.74164 9.13229 6.70841C 11.0641 10.0364 13.5694 14.3547 14.1804 15.4382C 15.7838 18.2695 17.054 21.942 12.631 25.2522C 13.777 22.8338 13.5664 20.6679 12.8985 18.8022C 12.7055 18.1586 12.3742 17.4715 11.9478 16.7141L 11.6417 16.1773C 10.8606 14.8154 9.16279 11.8826 7.62101 9.23121L 3.65662 15.8564C 2.94682 17.0436 2.57181 18.4028 2.57181 19.7881C 2.57181 21.1734 2.94682 22.5326 3.65662 23.7198C 5.8124 27.3179 10.4753 28.4876 14.0567 26.3193C 17.6381 24.151 18.797 19.461 16.6412 15.8588L 11.5907 7.42095L 11.5186 7.29944L 8.67427 2.46264L 10.148 5.62528e-10L 18.8433 14.5299C 21.728 19.349 20.1763 25.6333 15.3827 28.5354Z"/>
<path id="path2_fill" d="M 5.684 22.92L 8.736 22.92C 9.33333 22.92 9.75333 22.7987 9.996 22.556C 10.2573 22.2947 10.388 21.8653 10.388 21.268L 10.388 12.728C 10.388 12.1307 10.2573 11.7107 9.996 11.468C 9.75333 11.2067 9.33333 11.076 8.736 11.076L 5.684 11.076C 5.47867 11.076 5.376 11.1787 5.376 11.384L 5.376 22.612C 5.376 22.8173 5.47867 22.92 5.684 22.92ZM 1.82 25.412L 1.82 8.584C 1.82 8.192 2.016 7.996 2.408 7.996L 9.324 7.996C 10.78 7.996 11.9093 8.39733 12.712 9.2C 13.5333 9.984 13.944 11.104 13.944 12.56L 13.944 21.436C 13.944 22.892 13.5333 24.0213 12.712 24.824C 11.9093 25.608 10.78 26 9.324 26L 2.408 26C 2.016 26 1.82 25.804 1.82 25.412ZM 20.2646 26L 17.8846 26C 17.4926 26 17.2966 25.804 17.2966 25.412L 17.2966 8.584C 17.2966 8.192 17.4926 7.996 17.8846 7.996L 24.5486 7.996C 26.0046 7.996 27.1432 8.39733 27.9646 9.2C 28.7859 10.0027 29.1966 11.132 29.1966 12.588L 29.1966 14.772C 29.1966 16.8813 28.3659 18.2813 26.7046 18.972L 26.7046 19.084L 29.7006 25.328C 29.8686 25.776 29.7099 26 29.2246 26L 26.9566 26C 26.6206 26 26.3779 25.9627 26.2286 25.888C 26.0792 25.8133 25.9579 25.6547 25.8646 25.412L 23.0646 19.364L 21.1886 19.364C 20.9646 19.364 20.8526 19.4667 20.8526 19.672L 20.8526 25.412C 20.8526 25.804 20.6566 26 20.2646 26ZM 21.1606 16.508L 23.9046 16.508C 24.5019 16.508 24.9406 16.3867 25.2206 16.144C 25.5006 15.8827 25.6406 15.472 25.6406 14.912L 25.6406 12.728C 25.6406 12.1493 25.5006 11.7293 25.2206 11.468C 24.9406 11.2067 24.5019 11.076 23.9046 11.076L 21.1606 11.076C 20.9552 11.076 20.8526 11.1787 20.8526 11.384L 20.8526 16.2C 20.8526 16.4053 20.9552 16.508 21.1606 16.508ZM 60.1864 26L 57.8064 26C 57.4144 26 57.2184 25.804 57.2184 25.412L 57.2184 8.584C 57.2184 8.192 57.4144 7.996 57.8064 7.996L 64.6384 7.996C 66.0944 7.996 67.2238 8.39733 68.0264 9.2C 68.8291 9.984 69.2304 11.104 69.2304 12.56L 69.2304 15.248C 69.2304 16.704 68.8291 17.8333 68.0264 18.636C 67.2238 19.42 66.0944 19.812 64.6384 19.812L 61.1104 19.812C 60.8864 19.812 60.7744 19.9147 60.7744 20.12L 60.7744 25.412C 60.7744 25.804 60.5784 26 60.1864 26ZM 61.0824 16.704L 64.0504 16.704C 64.6478 16.704 65.0678 16.5827 65.3104 16.34C 65.5531 16.0787 65.6744 15.6587 65.6744 15.08L 65.6744 12.728C 65.6744 12.1307 65.5531 11.7107 65.3104 11.468C 65.0678 11.2067 64.6478 11.076 64.0504 11.076L 61.0824 11.076C 60.8771 11.076 60.7744 11.1787 60.7744 11.384L 60.7744 16.396C 60.7744 16.6013 60.8771 16.704 61.0824 16.704ZM 71.6181 21.408L 71.6181 20.848C 71.6181 20.456 71.8141 20.26 72.2061 20.26L 74.5861 20.26C 74.9781 20.26 75.1741 20.456 75.1741 20.848L 75.1741 21.072C 75.1741 21.7813 75.3141 22.2667 75.5941 22.528C 75.8741 22.7893 76.3874 22.92 77.1341 22.92L 78.4501 22.92C 79.1781 22.92 79.6821 22.78 79.9621 22.5C 80.2608 22.22 80.4101 21.6973 80.4101 20.932L 80.4101 20.596C 80.4101 20.0547 80.1861 19.644 79.7381 19.364C 79.3088 19.0653 78.7674 18.888 78.1141 18.832C 77.4608 18.776 76.7514 18.6733 75.9861 18.524C 75.2394 18.356 74.5394 18.1507 73.8861 17.908C 73.2328 17.6467 72.6821 17.152 72.2341 16.424C 71.8048 15.6773 71.5901 14.7253 71.5901 13.568L 71.5901 12.588C 71.5901 11.132 72.0008 10.0027 72.8221 9.2C 73.6434 8.39733 74.7821 7.996 76.2381 7.996L 79.0381 7.996C 80.5128 7.996 81.6608 8.39733 82.4821 9.2C 83.3034 10.0027 83.7141 11.132 83.7141 12.588L 83.7141 13.12C 83.7141 13.512 83.5181 13.708 83.1261 13.708L 80.7461 13.708C 80.3541 13.708 80.1581 13.512 80.1581 13.12L 80.1581 12.952C 80.1581 12.224 80.0181 11.7293 79.7381 11.468C 79.4581 11.2067 78.9448 11.076 78.1981 11.076L 77.1061 11.076C 76.3408 11.076 75.8181 11.2253 75.5381 11.524C 75.2768 11.804 75.1461 12.364 75.1461 13.204L 75.1461 13.736C 75.1461 14.6133 75.9114 15.1173 77.4421 15.248C 79.0288 15.3787 80.4381 15.696 81.6701 16.2C 82.3234 16.48 82.8648 16.984 83.2941 17.712C 83.7421 18.4213 83.9661 19.336 83.9661 20.456L 83.9661 21.408C 83.9661 22.864 83.5554 23.9933 82.7341 24.796C 81.9128 25.5987 80.7741 26 79.3181 26L 76.2661 26C 74.8101 26 73.6714 25.5987 72.8501 24.796C 72.0288 23.9933 71.6181 22.864 71.6181 21.408Z"/>
</defs>
</svg>
