<?xml version="1.0" encoding="UTF-8"?>
<svg width="39px" height="35px" viewBox="0 0 39 35" version="1.1" xmlns="http://www.w3.org/2000/svg" xmlns:xlink="http://www.w3.org/1999/xlink">
    <!-- Generator: Sketch 47.1 (45422) - http://www.bohemiancoding.com/sketch -->
    <title>Group 2</title>
    <desc>Created with Sketch.</desc>
    <defs></defs>
    <g id="Workspace-10" stroke="none" stroke-width="1" fill="none" fill-rule="evenodd">
        <g id="Desktop-Copy-10" transform="translate(-880.000000, -276.000000)" fill="#326DEC">
            <g id="Group-15" transform="translate(165.000000, 132.000000)">
                <g id="Group-2" transform="translate(713.000000, 143.000000)">
                    <path d="M18,21 L18,32 L19.5,37 L21,32 L21,21 C23.5,21 26,21 28.5,21 C28.1666667,17 26.5,14.6666667 23.5,14 C23.5,14 23.3333333,11.3333333 23,6 L25,5 L25,3 L25,3 C25,2.44771525 24.5522847,2 24,2 L16,2 C15.4477153,2 15,2.44771525 15,3 L15,5 L17,6 C16.3333333,11.3333333 16,14 16,14 C12.6666667,14.6666667 10.8333333,17 10.5,21 C13,21 15.5,21 18,21 Z" id="Path-3" transform="translate(19.500000, 19.500000) rotate(45.000000) translate(-19.500000, -19.500000) "></path>
                </g>
            </g>
        </g>
    </g>
</svg>