<?xml version="1.0" encoding="UTF-8"?>
<svg width="16px" height="16px" viewBox="0 0 16 16" version="1.1" xmlns="http://www.w3.org/2000/svg" xmlns:xlink="http://www.w3.org/1999/xlink">
    <!-- Generator: Sketch 47.1 (45422) - http://www.bohemiancoding.com/sketch -->
    <title>Oval</title>
    <desc>Created with Sketch.</desc>
    <defs></defs>
    <g id="Resources" stroke="none" stroke-width="1" fill="none" fill-rule="evenodd" opacity="0.400000006">
        <g id="Navigation-/-Desktop" transform="translate(-172.000000, -17.000000)" fill="#383838">
            <g id="Group" transform="translate(20.000000, 0.000000)">
                <path d="M162.926203,26.4262031 L167.646447,31.1464466 L167.646447,31.1464466 C167.841709,31.3417088 167.841709,31.6582912 167.646447,31.8535534 L166.853553,32.6464466 L166.853553,32.6464466 C166.658291,32.8417088 166.341709,32.8417088 166.146447,32.6464466 L161.426203,27.9262031 C160.454794,28.6030899 159.273749,29 158,29 C154.686292,29 152,26.3137085 152,23 C152,19.6862915 154.686292,17 158,17 C161.313708,17 164,19.6862915 164,23 C164,24.2737488 163.60309,25.4547943 162.926203,26.4262031 Z M158,27 C160.209139,27 162,25.209139 162,23 C162,20.790861 160.209139,19 158,19 C155.790861,19 154,20.790861 154,23 C154,25.209139 155.790861,27 158,27 Z" id="Oval"></path>
            </g>
        </g>
    </g>
</svg>