<svg xmlns="http://www.w3.org/2000/svg" width="14" height="14" viewBox="0 0 14 14">
  <path fill="#383838" fill-rule="evenodd" d="M3.72265625,5.18359375 C4.23730469,5.18359375 4.55273437,4.69384766 4.55273437,3.89697266 C4.55273437,3.07519531 4.24560547,2.60205078 3.72265625,2.60205078 C3.21630859,2.60205078 2.90087891,3.08349609 2.90087891,3.89697266 C2.90087891,4.69384766 3.21630859,5.18359375 3.72265625,5.18359375 Z M3.72265625,6.81054688 C2.09570312,6.81054688 1,5.64013672 1,3.89697266 C1,2.15380859 2.09570312,1 3.72265625,1 C5.35791016,1 6.4453125,2.14550781 6.4453125,3.89697266 C6.4453125,5.64013672 5.35791016,6.81054688 3.72265625,6.81054688 Z M10.2743554,13.0022459 C8.64740229,13.0022459 7.55999994,11.8484373 7.55999994,10.0969725 C7.55999994,8.3538084 8.64740229,7.19999981 10.2743554,7.19999981 C11.9179101,7.19999981 12.9970117,8.3538084 12.9970117,10.0969725 C12.9970117,11.8484373 11.9179101,13.0022459 10.2743554,13.0022459 Z M10.2817774,11.4315429 C10.788125,11.4315429 11.1035547,10.9417968 11.1035547,10.1449218 C11.1035547,9.32314444 10.7964258,8.8499999 10.2817774,8.8499999 C9.77542973,8.8499999 9.46000004,9.33144522 9.46000004,10.1449218 C9.46000004,10.9417968 9.77542973,11.4315429 10.2817774,11.4315429 Z M2.5,12.6305664 L6.31835938,6.77851564 L9.28173828,1.30000001 L11.7138672,1.30000001 L7.73779297,7.27656251 L4.94042969,12.6305664 L2.5,12.6305664 Z"/>
</svg>
