<svg xmlns="http://www.w3.org/2000/svg" width="14" height="14" viewBox="0 0 14 14">
  <path fill="#383838" fill-rule="evenodd" d="M11.6523313,4.12719585 C11.7720833,4.16554553 11.8743339,4.21230881 11.9768457,4.2671327 C12.3027716,4.4414398 12.5585602,4.69722837 12.7328673,5.0231543 C12.9071744,5.34908022 13,5.67236646 13,6.5638852 L13,10.4361148 C13,11.3276335 12.9071744,11.6509198 12.7328673,11.9768457 C12.5585602,12.3027716 12.3027716,12.5585602 11.9768457,12.7328673 C11.6509198,12.9071744 11.3276335,13 10.4361148,13 L3.5638852,13 C2.67236646,13 2.34908022,12.9071744 2.0231543,12.7328673 C1.69722837,12.5585602 1.4414398,12.3027716 1.2671327,11.9768457 C1.09282561,11.6509198 1,11.3276335 1,10.4361148 L1,6.5638852 C1,5.67236646 1.09282561,5.34908022 1.2671327,5.0231543 C1.4414398,4.69722837 1.69722837,4.4414398 2.0231543,4.2671327 C2.12566607,4.21230881 2.22791671,4.16554553 2.34766869,4.12719585 C2.1282964,3.80624282 2,3.41810402 2,3 C2,1.84565283 2.99302018,1 4.20000076,1 C5.91926819,1 7,2.64459243 7,4 C7,2.64459243 8.08073181,1 9.79999924,1 C11.0069798,1 12,1.84565283 12,3 C12,3.41810402 11.8717036,3.80624282 11.6523313,4.12719585 Z M6,5 L6,12 L8,12 L8,5 L6,5 Z M4,4 L6,4 C6,3.5 5.5,2 4.20000076,2 C3.5,2 3,2.44771525 3,3 C3,3.55228475 3.44771525,4 4,4 Z M10,4 C10.5522847,4 11,3.55228475 11,3 C11,2.44771525 10.5,2 9.79999924,2 C8.5,2 8,3.5 8,4 L10,4 Z"/>
</svg>
