<svg xmlns="http://www.w3.org/2000/svg" width="14" height="14" viewBox="0 0 14 14">
  <path fill="#383838" d="M4.49674149,10.8646996 C4.64773489,10.9531495 4.81805748,11 5,11 L6.14118612,11 C6.73058388,11 6.88723819,10.9878631 7.03157966,10.954596 C7.11215691,10.9360249 7.16834908,10.9127493 7.23845753,10.8689043 C7.36404577,10.7903629 7.48339919,10.6881737 7.90016634,10.2714065 L9.27140654,8.90016634 C9.68817369,8.48339919 9.79036294,8.36404577 9.86890435,8.23845753 C9.91274934,8.16834908 9.9360249,8.11215691 9.95459597,8.03157966 C9.9878631,7.88723819 10,7.73058388 10,7.14118612 L10,4.57055335 C10,3.93296215 9.94905721,3.6899363 9.83567455,3.47792916 C9.76061351,3.33757722 9.66242278,3.23938649 9.52207084,3.16432545 C9.3100637,3.05094279 9.06703785,3 8.42944665,3 L5.8458278,3 C4.92853228,3 4.70418221,3.043324 4.47792916,3.16432545 C4.33757722,3.23938649 4.23938649,3.33757722 4.16432545,3.47792916 C4.043324,3.70418221 4,3.92853228 4,4.8458278 L4,10 C4,10.1819425 4.04685047,10.3522651 4.13530036,10.5032585 C4.2225204,10.6521524 4.34784756,10.7774796 4.49674149,10.8646996 Z M5,13 C4.44771525,13 3.930287,12.8507616 3.48584256,12.5904121 C3.04139811,12.3300625 2.66993747,11.9586019 2.40958794,11.5141574 C2.14923842,11.069713 2,10.5522847 2,10 L2,4.8458278 C2,3.50854969 2.13923842,3.02362033 2.40069906,2.53473144 C2.66215969,2.04584256 3.04584256,1.66215969 3.53473144,1.40069906 C4.02362033,1.13923842 4.50854969,1 5.8458278,1 L8.42944665,1 C9.43639542,1 9.97637967,1.13923842 10.4652686,1.40069906 C10.9541574,1.66215969 11.3378403,2.04584256 11.5993009,2.53473144 C11.8607616,3.02362033 12,3.56360458 12,4.57055335 L12,7.14118612 C12,7.91581044 11.9719521,8.18376703 11.9035038,8.48075471 C11.8350555,8.77774238 11.7262068,9.04052649 11.564605,9.29892876 C11.4030033,9.55733102 11.2333622,9.76663779 10.6856201,10.3143799 L9.3143799,11.6856201 C8.76663779,12.2333622 8.55733102,12.4030033 8.29892876,12.564605 C8.04052649,12.7262068 7.77774238,12.8350555 7.48075471,12.9035038 C7.18376703,12.9719521 6.91581044,13 6.14118612,13 L5,13 Z"/>
</svg>
