<svg xmlns="http://www.w3.org/2000/svg" width="14" height="14" viewBox="0 0 14 14">
  <path fill="#383838" fill-rule="evenodd" d="M2,12.5 L2,11.5356295 C2,11.2073603 2.18546873,10.9072656 2.47908155,10.7604592 L4.60720629,9.69639686 C4.85185028,9.57407486 5.14203206,9.58521924 5.37657378,9.72594427 L6.47100849,10.3826051 C7.10437326,10.762624 7.89562674,10.762624 8.52899151,10.3826051 L9.62342622,9.72594427 C9.85796794,9.58521924 10.1481497,9.57407486 10.3927937,9.69639686 L12.5209184,10.7604592 C12.8145313,10.9072656 13,11.2073603 13,11.5356295 L13,12.5 C13,12.7761424 12.7761424,13 12.5,13 L2.5,13 C2.22385763,13 2,12.7761424 2,12.5 Z M5.61497518,8.43239437 C5.53145495,8.29587161 5.42955147,7.9134881 5.30926472,7.28524384 C4.74595754,7.20932999 4.46430395,6.76014532 4.46430395,5.93768983 C4.46430395,5.58376629 4.56343579,5.35356385 4.76169946,5.2470825 L4.46430395,3.12354125 C4.42041472,2.57221179 4.51954655,2.21828825 4.76169946,2.06177062 C5.00385237,1.905253 5.28827761,1.821961 5.61497518,1.81189462 C5.86953412,1.27063154 6.31519588,1 6.95196048,1 C9.26176265,1 10.6015435,2.39631917 10.6015435,3.31068133 C10.6015435,4.27473036 10.5105825,4.92019741 10.3286605,5.2470825 C10.5105825,5.4406825 10.6015435,5.67088494 10.6015435,5.93768983 C10.6015435,6.64553691 10.3360244,7.09472158 9.80498642,7.28524384 C9.71064964,7.90763093 9.61217108,8.29001444 9.50955073,8.43239437 C9.42000875,8.55662882 8.9056779,8.84340362 7.9665582,9.29271877 C7.68951567,9.42527216 7.36692842,9.42316635 7.09163827,9.28701094 C6.17987083,8.83606101 5.6876498,8.55118882 5.61497518,8.43239437 Z"/>
</svg>
