<svg xmlns="http://www.w3.org/2000/svg" width="14" height="14" viewBox="0 0 14 14">
  <path fill="#383838" fill-rule="evenodd" d="M5.19903256,12.4970154 C5.89906753,12.8198943 6.6785008,13 7.5,13 C8.79569623,13 9.98674645,12.5519572 10.9266723,11.8023501 C10.465387,11.5134918 10.1038574,11.075 9.45,11.075 C8.8,11.075 8.20846688,12.375 7.5,12.375 C6.85,12.375 6.85,12.05 6.2,12.05 C5.79184163,12.05 5.51183191,12.3062973 5.19903256,12.4970154 Z M4.02402125,3.23743723 C4.33400968,3.52502517 4.4836799,3.925 4.9,3.925 C5.225,3.925 6.2,2.625 6.85,2.625 C8.15,2.625 8.15,3.6 9.125,3.6 C10.75,3.6 10.1,5.875 11.4,6.2 C12.4465776,6.46164439 12.2293191,8.19776423 12.7831514,9.03427808 C12.9243281,8.54730423 13,8.03248917 13,7.5 C13,4.46243388 10.5375661,2 7.5,2 C6.18154007,2 4.97143543,2.46392413 4.02402125,3.23743723 Z M7.5,14 C3.91014913,14 1,11.0898509 1,7.5 C1,3.91014913 3.91014913,1 7.5,1 C11.0898509,1 14,3.91014913 14,7.5 C14,11.0898509 11.0898509,14 7.5,14 Z M3.9,4.25 C3.25,4.25 3.25,4.9 3.25,4.9 C3.25,4.9 3.9,5.265625 3.575,5.875 C3.25,6.484375 2.6,7.5 3.25,8.8 C3.9,10.1 5.32403349,11.0176316 5.32403349,11.0176316 C5.61451677,11.2288078 5.74838112,11.1282229 5.64891298,10.7872982 C5.64891298,10.7872982 5.240625,9.978125 5.85,9.775 C6.459375,9.571875 6.459375,9.328125 6.6625,8.921875 C6.865625,8.515625 7.06875,7.703125 7.678125,7.703125 C8.2875,7.703125 7.475,5.875 6.459375,6.484375 C6.063474,6.7219156 5.525,6.2 5.85,5.875 C6.175,5.55 5.525,4.9 4.875,4.9 C4.225,4.9 4.55,4.25 3.9,4.25 Z M7.175,4.575 C7.175,4.9 7.5,4.9 7.825,4.9 C8.15,4.9 8.15,5.225 8.475,5.55 C8.8,5.875 8.8,6.2 9.125,5.875 C9.45,5.55 9.775,4.9 9.125,4.575 C8.475,4.25 8.8,3.925 8.15,3.925 C7.5,3.925 7.175,4.25 7.175,4.575 Z"/>
</svg>
