<?xml version="1.0" encoding="UTF-8"?>
<svg width="16px" height="13px" viewBox="0 0 16 13" version="1.1" xmlns="http://www.w3.org/2000/svg" xmlns:xlink="http://www.w3.org/1999/xlink">
    <!-- Generator: Sketch 47.1 (45422) - http://www.bohemiancoding.com/sketch -->
    <title>Path</title>
    <desc>Created with Sketch.</desc>
    <defs></defs>
    <g id="Resources" stroke="none" stroke-width="1" fill="none" fill-rule="evenodd" opacity="0.600000024">
        <g id="Footer-/-Desktop" transform="translate(-847.000000, -94.000000)" fill="#383838">
            <g id="Group-4" transform="translate(20.000000, 0.000000)">
                <g id="col" transform="translate(827.000000, 30.000000)">
                    <g id="Telegram" transform="translate(0.000000, 60.000000)">
                        <path d="M0.349522331,9.45433508 L15.1135543,4.04084237 L15.1135543,4.04084237 C15.4540841,3.91598112 15.831358,4.090815 15.9562193,4.43134477 C15.9995416,4.54949623 16.0080049,4.67760714 15.9806019,4.80043087 L13.4198694,16.2779687 L13.4198694,16.2779687 C13.3290431,16.685064 12.9253979,16.9414507 12.5183026,16.8506244 C12.4200994,16.8287145 12.3272642,16.7874024 12.2452495,16.7291144 L8.66514102,14.1847263 L6.26484198,16.5653208 L6.26484198,16.5653208 C6.12193267,16.7070569 5.89118196,16.7061058 5.74944584,16.5631965 C5.66516674,16.4782198 5.62798178,16.3572792 5.64996114,16.2396318 L6.34228639,12.5338703 L13.1661594,6.52502243 L13.1661594,6.52502243 C13.2342113,6.46509852 13.2408003,6.36135367 13.1808764,6.29330183 C13.1281728,6.23344967 13.0400813,6.22012667 12.9720355,6.26171665 L4.17509274,11.638463 L0.365114638,10.3846331 L0.365114638,10.3846331 C0.106722532,10.2995986 -0.0338115429,10.0211963 0.0512229963,9.76280418 C0.0982860371,9.61979502 0.208170655,9.50616416 0.349522331,9.45433508 Z" id="Path"></path>
                    </g>
                </g>
            </g>
        </g>
    </g>
</svg>