<?xml version="1.0" encoding="UTF-8"?>
<svg width="56px" height="24px" viewBox="0 0 56 24" version="1.1" xmlns="http://www.w3.org/2000/svg" xmlns:xlink="http://www.w3.org/1999/xlink">
    <!-- Generator: Sketch 47.1 (45422) - http://www.bohemiancoding.com/sketch -->
    <title>Tooltips</title>
    <desc>Created with Sketch.</desc>
    <defs></defs>
    <g id="Page-1" stroke="none" stroke-width="1" fill="none" fill-rule="evenodd">
        <g id="Tooltips">
            <polygon id="Triangle" fill="#000000" points="11.5 0 17 6 6 6"></polygon>
            <polygon id="Triangle-Copy-4" fill="#FFFFFF" points="44.5 0 50 6 39 6"></polygon>
            <polygon id="Triangle-Copy-2" fill="#000000" transform="translate(11.500000, 20.000000) scale(1, -1) translate(-11.500000, -20.000000) " points="11.5 17 17 23 6 23"></polygon>
            <polygon id="Triangle-Copy-5" fill="#FFFFFF" transform="translate(44.500000, 20.000000) scale(1, -1) translate(-44.500000, -20.000000) " points="44.5 17 50 23 39 23"></polygon>
            <polygon id="Triangle-Copy" fill="#000000" transform="translate(20.000000, 11.500000) rotate(90.000000) translate(-20.000000, -11.500000) " points="20 8.5 25.5 14.5 14.5 14.5"></polygon>
            <polygon id="Triangle-Copy-6" fill="#FFFFFF" transform="translate(53.000000, 11.500000) rotate(90.000000) translate(-53.000000, -11.500000) " points="53 8.5 58.5 14.5 47.5 14.5"></polygon>
            <polygon id="Triangle-Copy-3" fill="#000000" transform="translate(3.000000, 11.500000) scale(-1, 1) rotate(90.000000) translate(-3.000000, -11.500000) " points="3 8.5 8.5 14.5 -2.5 14.5"></polygon>
            <polygon id="Triangle-Copy-7" fill="#FFFFFF" transform="translate(36.000000, 11.500000) scale(-1, 1) rotate(90.000000) translate(-36.000000, -11.500000) " points="36 8.5 41.5 14.5 30.5 14.5"></polygon>
        </g>
    </g>
</svg>