<?xml version="1.0" encoding="UTF-8"?>
<svg width="16px" height="13px" viewBox="0 0 16 13" version="1.1" xmlns="http://www.w3.org/2000/svg" xmlns:xlink="http://www.w3.org/1999/xlink">
    <!-- Generator: Sketch 47.1 (45422) - http://www.bohemiancoding.com/sketch -->
    <title>Shape</title>
    <desc>Created with Sketch.</desc>
    <defs></defs>
    <g id="Resources" stroke="none" stroke-width="1" fill="none" fill-rule="evenodd" opacity="0.600000024">
        <g id="Footer-/-Desktop" transform="translate(-847.000000, -64.000000)" fill-rule="nonzero" fill="#383838">
            <g id="Group-4" transform="translate(20.000000, 0.000000)">
                <g id="col" transform="translate(827.000000, 30.000000)">
                    <g id="Twitter" transform="translate(0.000000, 30.000000)">
                        <path d="M14.0854131,6.0645922 C14.7613849,5.65740503 15.2813633,5.01563541 15.527353,4.24991029 C14.8933794,4.61977752 14.1907421,4.8890142 13.4427732,5.03896037 C12.8454648,4.39985646 11.9941669,4 11.048873,4 C9.2376151,4 7.76900962,5.46813964 7.76900962,7.2768237 C7.76900962,7.5367304 7.79900837,7.78664069 7.85367276,8.02588814 C5.1271197,7.89726765 2.71055373,6.58840416 1.09328778,4.6097811 C0.808632974,5.09094171 0.649306279,5.65007433 0.649306279,6.25918901 C0.649306279,7.39877993 1.22928211,8.40042036 2.10791217,8.98887579 C1.56993459,8.97154867 1.06395567,8.82360178 0.622640723,8.57835649 L0.622640723,8.61900856 C0.622640723,10.208438 1.75126036,11.5339622 3.25319778,11.8358538 C2.97787592,11.9098272 2.68722137,11.9498129 2.38923378,11.9498129 C2.17990917,11.9498129 1.97925086,11.9298201 1.77859256,11.8925001 C2.1992417,13.1940329 3.40852464,14.1430256 4.84779801,14.1696827 C3.72784467,15.0487005 2.30857048,15.5725124 0.779967501,15.5725124 C0.519978334,15.5725124 0.260655806,15.5571846 0,15.5278618 C1.45927253,16.4568616 3.17853423,17 5.03779009,17 C11.0735386,17 14.3700679,12.0044599 14.3700679,7.67934588 C14.3700679,7.54006254 14.3700679,7.39944635 14.3600683,7.25949659 C15.0007083,6.80032809 15.5600183,6.21986979 16,5.56143948 C15.3786926,5.80735121 14.7487188,5.98395448 14.0854131,6.0645922 Z" id="Shape"></path>
                    </g>
                </g>
            </g>
        </g>
    </g>
</svg>